<svg width="9" height="5" viewBox="0 0 9 5" fill="none" xmlns="http://www.w3.org/2000/svg">
<path d="M4.04999 4.49999H2.24999C1.65326 4.49999 1.08096 4.26293 0.659008 3.84098C0.237052 3.41902 0 2.84673 0 2.24999C0 1.65326 0.237052 1.08096 0.659008 0.659008C1.08096 0.237052 1.65326 0 2.24999 0H4.04999V0.899997H2.24999C1.89195 0.899997 1.54858 1.04223 1.2954 1.2954C1.04223 1.54858 0.899997 1.89195 0.899997 2.24999C0.899997 2.60803 1.04223 2.95141 1.2954 3.20458C1.54858 3.45776 1.89195 3.59999 2.24999 3.59999H4.04999V4.49999ZM6.74998 0H4.94999V0.899997H6.74998C7.10802 0.899997 7.4514 1.04223 7.70457 1.2954C7.95774 1.54858 8.09998 1.89195 8.09998 2.24999C8.09998 2.60803 7.95774 2.95141 7.70457 3.20458C7.4514 3.45776 7.10802 3.59999 6.74998 3.59999H4.94999V4.49999H6.74998C7.34672 4.49999 7.91901 4.26293 8.34097 3.84098C8.76292 3.41902 8.99997 2.84673 8.99997 2.24999C8.99997 1.65326 8.76292 1.08096 8.34097 0.659008C7.91901 0.237052 7.34672 0 6.74998 0ZM6.29998 1.79999H2.69999V2.69999H6.29998V1.79999Z" fill="black"/>
</svg>
