<svg width="15" height="17" viewBox="0 0 15 17" fill="none" xmlns="http://www.w3.org/2000/svg">
<path d="M10.8333 15H4.16667C3.50363 15 2.86774 14.7366 2.3989 14.2678C1.93006 13.7989 1.66667 13.163 1.66667 12.5V4.16667C1.66667 3.94565 1.57887 3.73369 1.42259 3.57741C1.26631 3.42113 1.05435 3.33333 0.833333 3.33333C0.61232 3.33333 0.400358 3.42113 0.244078 3.57741C0.0877973 3.73369 0 3.94565 0 4.16667V12.5C0 13.6051 0.438987 14.6649 1.22039 15.4463C2.00179 16.2277 3.0616 16.6667 4.16667 16.6667H10.8333C11.0543 16.6667 11.2663 16.5789 11.4226 16.4226C11.5789 16.2663 11.6667 16.0543 11.6667 15.8333C11.6667 15.6123 11.5789 15.4004 11.4226 15.2441C11.2663 15.0878 11.0543 15 10.8333 15ZM15 5.78333C14.9913 5.70678 14.9746 5.63136 14.95 5.55833V5.48333C14.9099 5.39765 14.8565 5.31889 14.7917 5.25L9.79167 0.25C9.72278 0.18518 9.64402 0.131734 9.55833 0.0916666H9.48333L9.21667 0H5.83333C5.17029 0 4.53441 0.263392 4.06557 0.732233C3.59673 1.20107 3.33333 1.83696 3.33333 2.5V10.8333C3.33333 11.4964 3.59673 12.1323 4.06557 12.6011C4.53441 13.0699 5.17029 13.3333 5.83333 13.3333H12.5C13.163 13.3333 13.7989 13.0699 14.2678 12.6011C14.7366 12.1323 15 11.4964 15 10.8333V5.83333C15 5.83333 15 5.83333 15 5.78333ZM10 2.84167L12.1583 5H10.8333C10.6123 5 10.4004 4.9122 10.2441 4.75592C10.0878 4.59964 10 4.38768 10 4.16667V2.84167ZM13.3333 10.8333C13.3333 11.0543 13.2455 11.2663 13.0893 11.4226C12.933 11.5789 12.721 11.6667 12.5 11.6667H5.83333C5.61232 11.6667 5.40036 11.5789 5.24408 11.4226C5.0878 11.2663 5 11.0543 5 10.8333V2.5C5 2.27899 5.0878 2.06702 5.24408 1.91074C5.40036 1.75446 5.61232 1.66667 5.83333 1.66667H8.33333V4.16667C8.33333 4.82971 8.59672 5.46559 9.06557 5.93443C9.53441 6.40328 10.1703 6.66667 10.8333 6.66667H13.3333V10.8333Z" fill="#0061FF"/>
</svg>
