<svg width="17" height="17" viewBox="0 0 17 17" fill="none" xmlns="http://www.w3.org/2000/svg">
<path d="M15.5875 6.21678L3.68817 0.267114C3.21857 0.0333845 2.6883 -0.0498247 2.16968 0.0288309C1.65105 0.107486 1.1693 0.344179 0.790117 0.706637C0.41093 1.0691 0.152757 1.53968 0.0507962 2.05423C-0.0511641 2.56878 0.00805091 3.10226 0.220368 3.58193L2.26025 8.14617C2.30654 8.25652 2.33038 8.37499 2.33038 8.49465C2.33038 8.61432 2.30654 8.73278 2.26025 8.84313L0.220368 13.4074C0.0475726 13.7956 -0.025476 14.2208 0.00786031 14.6444C0.0411966 15.068 0.179861 15.4765 0.411252 15.8329C0.642643 16.1893 0.959423 16.4822 1.3328 16.685C1.70619 16.8878 2.12433 16.9941 2.54924 16.9942C2.94721 16.9902 3.33926 16.8973 3.69667 16.7222L15.596 10.7725C16.0181 10.5602 16.3729 10.2348 16.6208 9.83254C16.8687 9.43032 17 8.96713 17 8.49465C17 8.02217 16.8687 7.55898 16.6208 7.15676C16.3729 6.75454 16.0181 6.42911 15.596 6.21678H15.5875ZM14.831 9.25111L2.93172 15.2008C2.77546 15.2758 2.60001 15.3013 2.42887 15.2737C2.25774 15.2462 2.09911 15.167 1.97426 15.0468C1.8494 14.9266 1.76429 14.771 1.73033 14.6011C1.69638 14.4311 1.7152 14.2548 1.78428 14.0958L3.81567 9.53159C3.84196 9.47064 3.86467 9.40821 3.88366 9.3446H9.73983C9.96525 9.3446 10.1814 9.25506 10.3408 9.09566C10.5002 8.93626 10.5898 8.72007 10.5898 8.49465C10.5898 8.26923 10.5002 8.05304 10.3408 7.89364C10.1814 7.73425 9.96525 7.6447 9.73983 7.6447H3.88366C3.86467 7.5811 3.84196 7.51866 3.81567 7.45771L1.78428 2.89347C1.7152 2.73449 1.69638 2.5582 1.73033 2.38823C1.76429 2.21825 1.8494 2.06273 1.97426 1.9425C2.09911 1.82226 2.25774 1.74308 2.42887 1.71556C2.60001 1.68804 2.77546 1.7135 2.93172 1.78853L14.831 7.73819C14.9703 7.80952 15.0871 7.91789 15.1687 8.05135C15.2503 8.18482 15.2935 8.33822 15.2935 8.49465C15.2935 8.65108 15.2503 8.80448 15.1687 8.93795C15.0871 9.07142 14.9703 9.17978 14.831 9.25111Z" fill="#0061FF"/>
</svg>
