<svg width="27" height="27" viewBox="0 0 27 27" fill="none" xmlns="http://www.w3.org/2000/svg">
<path d="M20.709 4.671C20.3886 4.671 20.0754 4.76601 19.809 4.94402C19.5426 5.12202 19.3349 5.37503 19.2123 5.67105C19.0897 5.96706 19.0576 6.29279 19.1201 6.60704C19.1826 6.92129 19.3369 7.20995 19.5635 7.43651C19.79 7.66307 20.0787 7.81736 20.3929 7.87987C20.7072 7.94237 21.0329 7.91029 21.3289 7.78768C21.6249 7.66506 21.878 7.45743 22.056 7.19102C22.234 6.92461 22.329 6.6114 22.329 6.29099C22.329 5.86135 22.1583 5.44929 21.8545 5.14548C21.5507 4.84167 21.1386 4.671 20.709 4.671ZM26.919 7.93799C26.8927 6.8179 26.6829 5.70969 26.298 4.6575C25.9547 3.75723 25.4205 2.94202 24.732 2.268C24.0635 1.57602 23.2464 1.04514 22.3425 0.715499C21.2931 0.318817 20.1836 0.104233 19.062 0.0809999C17.631 -7.54371e-08 17.172 0 13.5 0C9.82799 0 9.36899 -7.54371e-08 7.93799 0.0809999C6.81635 0.104233 5.70691 0.318817 4.6575 0.715499C3.75526 1.04847 2.93886 1.57891 2.268 2.268C1.57602 2.93649 1.04514 3.75359 0.715499 4.6575C0.318817 5.70691 0.104233 6.81635 0.0809999 7.93799C-7.54371e-08 9.36899 0 9.82799 0 13.5C0 17.172 -7.54371e-08 17.631 0.0809999 19.062C0.104233 20.1836 0.318817 21.2931 0.715499 22.3425C1.04514 23.2464 1.57602 24.0635 2.268 24.732C2.93886 25.4211 3.75526 25.9515 4.6575 26.2845C5.70691 26.6812 6.81635 26.8957 7.93799 26.919C9.36899 27 9.82799 27 13.5 27C17.172 27 17.631 27 19.062 26.919C20.1836 26.8957 21.2931 26.6812 22.3425 26.2845C23.2464 25.9548 24.0635 25.424 24.732 24.732C25.4235 24.0605 25.9582 23.2445 26.298 22.3425C26.6829 21.2903 26.8927 20.1821 26.919 19.062C26.919 17.631 27 17.172 27 13.5C27 9.82799 27 9.36899 26.919 7.93799ZM24.489 18.9C24.4792 19.7569 24.3239 20.606 24.03 21.411C23.8144 21.9985 23.4682 22.5294 23.0175 22.9635C22.5796 23.4097 22.0498 23.7552 21.465 23.976C20.66 24.2699 19.8109 24.4252 18.954 24.435C17.604 24.5025 17.1045 24.516 13.554 24.516C10.0035 24.516 9.50399 24.516 8.15399 24.435C7.2642 24.4516 6.3782 24.3146 5.535 24.03C4.9758 23.7979 4.47033 23.4532 4.05 23.0175C3.60192 22.5838 3.26004 22.0525 3.051 21.465C2.7214 20.6484 2.5386 19.7801 2.511 18.9C2.511 17.55 2.43 17.0505 2.43 13.5C2.43 9.94949 2.43 9.44999 2.511 8.09999C2.51705 7.22392 2.67698 6.35572 2.9835 5.535C3.22116 4.96518 3.58596 4.45724 4.05 4.05C4.46014 3.58582 4.96703 3.21718 5.535 2.97C6.35789 2.67306 7.22519 2.51786 8.09999 2.511C9.44999 2.511 9.94949 2.43 13.5 2.43C17.0505 2.43 17.55 2.43 18.9 2.511C19.7569 2.52083 20.606 2.67603 21.411 2.97C22.0245 3.19768 22.5751 3.56784 23.0175 4.05C23.4599 4.46469 23.8056 4.97169 24.03 5.535C24.33 6.35706 24.4853 7.2249 24.489 8.09999C24.5565 9.44999 24.57 9.94949 24.57 13.5C24.57 17.0505 24.5565 17.55 24.489 18.9ZM13.5 6.57449C12.1308 6.57716 10.7932 6.98561 9.65608 7.74821C8.51896 8.51081 7.63341 9.59336 7.1113 10.8591C6.5892 12.1248 6.45397 13.5168 6.72272 14.8593C6.99146 16.2019 7.65211 17.4346 8.6212 18.4018C9.59028 19.369 10.8243 20.0273 12.1674 20.2934C13.5104 20.5595 14.9022 20.4216 16.1669 19.897C17.4316 19.3724 18.5124 18.4848 19.2728 17.3462C20.0331 16.2076 20.439 14.8691 20.439 13.5C20.4408 12.5889 20.2624 11.6864 19.9142 10.8445C19.5659 10.0026 19.0546 9.23779 18.4098 8.59416C17.7649 7.95054 16.9991 7.44076 16.1565 7.09415C15.3139 6.74754 14.4111 6.57093 13.5 6.57449ZM13.5 17.9955C12.6109 17.9955 11.7417 17.7318 11.0024 17.2379C10.2631 16.7439 9.68695 16.0418 9.34669 15.2203C9.00644 14.3989 8.91741 13.495 9.09087 12.623C9.26433 11.7509 9.69249 10.9499 10.3212 10.3212C10.9499 9.69249 11.7509 9.26433 12.623 9.09087C13.495 8.91741 14.3989 9.00644 15.2203 9.34669C16.0418 9.68695 16.7439 10.2631 17.2379 11.0024C17.7318 11.7417 17.9955 12.6109 17.9955 13.5C17.9955 14.0903 17.8792 14.6749 17.6533 15.2203C17.4274 15.7658 17.0962 16.2613 16.6788 16.6788C16.2613 17.0962 15.7658 17.4274 15.2203 17.6533C14.6749 17.8792 14.0903 17.9955 13.5 17.9955Z" fill="#262B35"/>
</svg>
