<svg width="20" height="20" viewBox="0 0 20 20" fill="none" xmlns="http://www.w3.org/2000/svg">
<path d="M17.79 19.38H17.7324L17.6764 19.3931L17.3866 19.4607C17.2578 19.4848 17.1273 19.498 16.9963 19.5L3 19.5C2.33696 19.5 1.70107 19.2366 1.23223 18.7678C0.763392 18.2989 0.5 17.663 0.5 17L0.5 3C0.5 2.33696 0.763392 1.70107 1.23223 1.23223C1.70107 0.763392 2.33696 0.5 3 0.5L17 0.5C17.663 0.5 18.2989 0.763392 18.7678 1.23223C19.2366 1.70107 19.5 2.33696 19.5 3L19.5 16.9874C19.4914 17.1477 19.4645 17.3065 19.4198 17.4607L19.4 17.5289V17.6V17.6766C19.3902 17.7101 19.3821 17.739 19.3748 17.7647C19.3552 17.8343 19.342 17.8811 19.3185 17.9377L19.3145 17.9472L19.311 17.9568C19.3014 17.9827 19.2897 18.0078 19.276 18.0318L19.2598 18.06L19.2475 18.09C19.2097 18.182 19.1644 18.2707 19.1121 18.3553L19.0315 18.4716C18.9658 18.5628 18.8931 18.6488 18.8141 18.7288L18.7934 18.7498L18.7753 18.773L18.7283 18.8335C18.6335 18.9226 18.5336 19.0061 18.4289 19.0834C18.4029 19.1012 18.371 19.1199 18.3248 19.1452C18.316 19.15 18.306 19.1555 18.295 19.1614C18.2573 19.1818 18.2088 19.2081 18.1635 19.2348L18.0721 19.2841L17.8186 19.38H17.79ZM1.64591 12.337L1.5 12.4833V12.69L1.5 17C1.5 17.3978 1.65804 17.7794 1.93934 18.0607C2.22065 18.342 2.60218 18.5 3 18.5L15.31 18.5H16.5161L15.6638 17.6467L7.065 9.0379C7.0648 9.0377 7.06461 9.03751 7.06441 9.03731C6.92509 8.897 6.7594 8.78561 6.57687 8.70956C6.39407 8.63341 6.19802 8.5942 6 8.5942C5.80198 8.5942 5.60593 8.63341 5.42313 8.70956C5.24053 8.78564 5.07478 8.89709 4.93542 9.03748C4.93528 9.03762 4.93514 9.03776 4.935 9.0379L1.64591 12.337ZM18.5 17.0038H18.5V17V14.69L18.5 14.4833L18.3541 14.337L15.065 11.0379C15.0648 11.0377 15.0646 11.0375 15.0644 11.0372C14.925 10.897 14.7594 10.7856 14.5769 10.7096C14.3941 10.6334 14.198 10.5942 14 10.5942C13.802 10.5942 13.6059 10.6334 13.4231 10.7096C13.2407 10.7856 13.0752 10.8968 12.9359 11.037C12.9356 11.0373 12.9353 11.0376 12.935 11.0379L12.0564 11.9164L11.7029 12.27L12.0564 12.6236L17.4064 17.9736L17.7826 18.3498L18.1348 17.951C18.1836 17.8957 18.228 17.8369 18.2677 17.7749C18.3112 17.7104 18.3497 17.6427 18.3827 17.5723L18.3893 17.5582L18.395 17.5438C18.463 17.3718 18.4986 17.1888 18.5 17.0038ZM17.6483 12.2154L18.5 13.058V11.86V3C18.5 2.60218 18.342 2.22065 18.0607 1.93934C17.7794 1.65804 17.3978 1.5 17 1.5L3 1.5C2.60217 1.5 2.22064 1.65804 1.93934 1.93934C1.65804 2.22064 1.5 2.60217 1.5 3L1.5 9.86L1.5 11.058L2.35166 10.2154L4.2278 8.35926C4.70675 7.90657 5.34084 7.65428 6 7.65428C6.65873 7.65428 7.29243 7.90624 7.77128 8.35838L10.6464 11.2336L11 11.5871L11.3536 11.2336L12.2287 10.3584C12.7076 9.90624 13.3413 9.65428 14 9.65428C14.6592 9.65428 15.2933 9.90657 15.7722 10.3593L17.6483 12.2154Z" fill="#75839D" stroke="#75839D"/>
</svg>
