<svg width="22" height="21" viewBox="0 0 22 21" fill="none" xmlns="http://www.w3.org/2000/svg">
<path d="M21.2652 0.47369C20.9805 0.236818 20.6369 0.0815752 20.2709 0.0244833C19.905 -0.0326086 19.5304 0.0105863 19.187 0.149471L1.26569 7.385C0.882432 7.54269 0.55619 7.8132 0.330268 8.16064C0.104346 8.50808 -0.0105728 8.916 0.000764984 9.33028C0.0121028 9.74455 0.149161 10.1456 0.393748 10.4801C0.638335 10.8147 0.978884 11.067 1.37019 11.2035L4.99528 12.4642L7.01583 19.146C7.04329 19.2353 7.08314 19.3203 7.13422 19.3984C7.14197 19.4104 7.1529 19.4194 7.16114 19.431C7.22014 19.5134 7.29146 19.5861 7.37257 19.6468C7.39564 19.6644 7.41773 19.6809 7.4424 19.6965C7.53733 19.7595 7.64247 19.8055 7.75313 19.8326L7.76497 19.8336L7.77168 19.8365C7.83822 19.85 7.90594 19.8569 7.97384 19.857C7.98037 19.857 7.98617 19.8538 7.99264 19.8537C8.0951 19.8519 8.19667 19.8343 8.29374 19.8014C8.31632 19.7937 8.33567 19.7809 8.35758 19.7716C8.42996 19.7416 8.49853 19.7031 8.56187 19.657C8.6126 19.6143 8.66334 19.5715 8.7141 19.5288L11.4163 16.5454L15.4467 19.6675C15.8015 19.9437 16.2383 20.0939 16.6879 20.0943C17.1591 20.0937 17.6158 19.9311 17.9814 19.6338C18.3469 19.3365 18.5992 18.9226 18.6958 18.4614L21.9586 2.44445C22.0325 2.08396 22.0071 1.71015 21.8849 1.36301C21.7628 1.01587 21.5486 0.70847 21.2652 0.47369ZM8.37037 12.7826C8.23171 12.9207 8.13692 13.0967 8.0979 13.2885L7.78838 14.7925L7.0043 12.1994L11.0697 10.0824L8.37037 12.7826ZM16.6723 18.0864L11.9095 14.3969C11.7103 14.2429 11.4603 14.1696 11.2094 14.1917C10.9586 14.2138 10.7253 14.3296 10.556 14.516L9.69053 15.4712L9.99638 13.9847L17.0796 6.90156C17.2486 6.73272 17.3516 6.50891 17.3699 6.27067C17.3882 6.03243 17.3206 5.79552 17.1793 5.60284C17.0379 5.41017 16.8323 5.27448 16.5996 5.22035C16.3668 5.16623 16.1224 5.19724 15.9106 5.30777L5.74505 10.6005L2.0206 9.23759L19.9995 2.045L16.6723 18.0864Z" fill="#80B0FF"/>
</svg>
