<svg width="14" height="14" viewBox="0 0 14 14" fill="none" xmlns="http://www.w3.org/2000/svg">
<path d="M13.1818 1.8119L11.5656 0.195665C11.5036 0.133634 11.43 0.084426 11.3489 0.0508531C11.2679 0.0172801 11.1811 0 11.0934 0C11.0057 0 10.9188 0.0172801 10.8378 0.0508531C10.7568 0.084426 10.6831 0.133634 10.6211 0.195665L7.56222 3.2546C7.43696 3.37983 7.36657 3.54967 7.36653 3.72679V5.34303C7.36654 5.52016 7.4369 5.69003 7.56215 5.81528C7.6874 5.94053 7.85728 6.0109 8.0344 6.0109H9.65097C9.82809 6.01086 9.99793 5.94047 10.1232 5.81522L13.1818 2.75628C13.2438 2.69428 13.293 2.62066 13.3266 2.53964C13.3602 2.45862 13.3774 2.37178 13.3774 2.28409C13.3774 2.19639 13.3602 2.10955 13.3266 2.02853C13.293 1.94751 13.2438 1.8739 13.1818 1.8119ZM9.37442 4.67515H8.70231V4.00336L11.0934 1.6123L11.7652 2.28409L9.37442 4.67515ZM11.3539 6.65334C11.1768 6.65334 11.0069 6.72371 10.8817 6.84896C10.7564 6.97421 10.686 7.14409 10.686 7.32122V8.91852L9.69727 7.92974C9.34913 7.58228 8.87736 7.38714 8.38549 7.38714C7.89362 7.38714 7.42185 7.58228 7.0737 7.92974L6.60752 8.39592L4.94713 6.73549C4.59938 6.38827 4.12806 6.19325 3.63664 6.19325C3.14523 6.19325 2.6739 6.38827 2.32616 6.73549L1.33576 7.72596V3.98183C1.33599 3.80477 1.40642 3.63503 1.53163 3.50982C1.65683 3.38462 1.82657 3.31418 2.00363 3.31395H6.0109C6.18803 3.31395 6.35791 3.24359 6.48316 3.11834C6.60841 2.99309 6.67878 2.82321 6.67878 2.64608C6.67878 2.46894 6.60841 2.29907 6.48316 2.17381C6.35791 2.04856 6.18803 1.9782 6.0109 1.9782H2.00363C1.47242 1.97878 0.96312 2.19006 0.587491 2.56569C0.211863 2.94132 0.000579849 3.45061 0 3.98183V11.9964C0.000579849 12.5276 0.211863 13.0369 0.587491 13.4125C0.96312 13.7881 1.47242 13.9994 2.00363 14H10.0182C10.5494 13.9994 11.0587 13.7881 11.4343 13.4125C11.8099 13.0369 12.0212 12.5276 12.0218 11.9964V7.32122C12.0218 7.14409 11.9514 6.97421 11.8262 6.84896C11.7009 6.72371 11.5311 6.65334 11.3539 6.65334ZM2.00363 12.6642C1.82657 12.664 1.65683 12.5936 1.53163 12.4684C1.40642 12.3432 1.33599 12.1734 1.33576 11.9964V9.61477L3.2706 7.67992C3.36964 7.58661 3.50058 7.53464 3.63666 7.53464C3.77274 7.53464 3.90368 7.58661 4.00272 7.67992L6.11856 9.79517C6.12423 9.80129 6.1263 9.80972 6.13221 9.81563L8.98105 12.6642H2.00363ZM10.686 11.9964C10.6827 12.1251 10.6412 12.25 10.5667 12.3551L7.55194 9.34034L8.01812 8.87416C8.11572 8.77704 8.2478 8.72252 8.38549 8.72252C8.52317 8.72252 8.65526 8.77704 8.75285 8.87416L10.686 10.8074V11.9964Z" fill="white"/>
</svg>
