<svg width="15" height="11" viewBox="0 0 15 11" fill="none" xmlns="http://www.w3.org/2000/svg">
<path d="M14.6563 0.31571C14.5571 0.215672 14.439 0.13627 14.309 0.0820837C14.1789 0.0278975 14.0394 0 13.8985 0C13.7576 0 13.6181 0.0278975 13.488 0.0820837C13.358 0.13627 13.2399 0.215672 13.1407 0.31571L5.1892 8.27788L1.84851 4.92651C1.74549 4.827 1.62388 4.74875 1.49062 4.69623C1.35736 4.64372 1.21506 4.61796 1.07185 4.62044C0.928633 4.62292 0.78731 4.65358 0.655947 4.71067C0.524583 4.76777 0.405751 4.85018 0.306237 4.95319C0.206722 5.05621 0.128473 5.17782 0.0759564 5.31108C0.0234403 5.44434 -0.00231452 5.58664 0.000163212 5.72986C0.00264095 5.87307 0.0333026 6.01439 0.090397 6.14576C0.147491 6.27712 0.229901 6.39595 0.33292 6.49547L4.43141 10.594C4.53063 10.694 4.64868 10.7734 4.77874 10.8276C4.9088 10.8818 5.04831 10.9097 5.1892 10.9097C5.3301 10.9097 5.46961 10.8818 5.59967 10.8276C5.72973 10.7734 5.84778 10.694 5.947 10.594L14.6563 1.88466C14.7646 1.78472 14.8511 1.66342 14.9102 1.5284C14.9694 1.39339 14.9999 1.24759 14.9999 1.10019C14.9999 0.952789 14.9694 0.806988 14.9102 0.671973C14.8511 0.536958 14.7646 0.415656 14.6563 0.31571Z" fill="#75839D"/>
</svg>
