<svg width="20" height="16" viewBox="0 0 20 16" fill="none" xmlns="http://www.w3.org/2000/svg">
<path d="M16.4421 4.21021C15.8306 2.80505 14.7752 1.63915 13.4377 0.89118C12.1002 0.143208 10.5543 -0.145577 9.03692 0.0690781C7.51956 0.283734 6.11445 0.989988 5.03688 2.07962C3.95931 3.16924 3.26874 4.58214 3.07099 6.10179C2.11678 6.3303 1.27972 6.90128 0.718771 7.70631C0.15782 8.51133 -0.0879539 9.49433 0.0281222 10.4686C0.144198 11.4429 0.61404 12.3407 1.34842 12.9914C2.08281 13.6421 3.03058 14.0004 4.01177 13.9984C4.27721 13.9984 4.53177 13.8929 4.71947 13.7052C4.90716 13.5175 5.0126 13.263 5.0126 12.9975C5.0126 12.7321 4.90716 12.4775 4.71947 12.2898C4.53177 12.1021 4.27721 11.9967 4.01177 11.9967C3.4809 11.9967 2.97177 11.7858 2.59638 11.4104C2.221 11.035 2.01011 10.5259 2.01011 9.99502C2.01011 9.46415 2.221 8.95502 2.59638 8.57963C2.97177 8.20425 3.4809 7.99336 4.01177 7.99336C4.27721 7.99336 4.53177 7.88791 4.71947 7.70022C4.90716 7.51253 5.0126 7.25796 5.0126 6.99253C5.01516 5.80882 5.43724 4.66434 6.20386 3.76242C6.97048 2.8605 8.03201 2.25954 9.19984 2.0663C10.3677 1.87307 11.5662 2.10006 12.5825 2.70697C13.5988 3.31388 14.367 4.2614 14.7507 5.38119C14.8079 5.55317 14.9107 5.70639 15.0482 5.82449C15.1857 5.94259 15.3527 6.02114 15.5314 6.05174C16.198 6.17772 16.8023 6.52574 17.2458 7.0391C17.6893 7.55246 17.9459 8.20089 17.9738 8.87874C18.0016 9.55658 17.7991 10.2239 17.3992 10.7719C16.9993 11.3199 16.4256 11.7164 15.7716 11.8966C15.5141 11.963 15.2935 12.1289 15.1584 12.3579C15.0232 12.5869 14.9846 12.8601 15.051 13.1176C15.1173 13.3751 15.2832 13.5957 15.5122 13.7308C15.7412 13.8659 16.0145 13.9046 16.272 13.8382C17.3252 13.5599 18.2589 12.9455 18.9312 12.0882C19.6035 11.231 19.9777 10.1778 19.9969 9.08854C20.0161 7.99929 19.6794 6.93352 19.0378 6.05307C18.3963 5.17261 17.4849 4.52557 16.4421 4.21021ZM10.7274 6.28194C10.6322 6.19082 10.5199 6.11939 10.3971 6.07176C10.1534 5.97166 9.88011 5.97166 9.63645 6.07176C9.5136 6.11939 9.40136 6.19082 9.30617 6.28194L6.30368 9.28443C6.11522 9.47289 6.00934 9.7285 6.00934 9.99502C6.00934 10.2615 6.11522 10.5172 6.30368 10.7056C6.49214 10.8941 6.74775 11 7.01427 11C7.28079 11 7.5364 10.8941 7.72486 10.7056L9.01593 9.40453V14.9992C9.01593 15.2646 9.12138 15.5192 9.30907 15.7069C9.49676 15.8946 9.75133 16 10.0168 16C10.2822 16 10.5368 15.8946 10.7245 15.7069C10.9122 15.5192 11.0176 15.2646 11.0176 14.9992V9.40453L12.3087 10.7056C12.4017 10.7994 12.5124 10.8739 12.6344 10.9247C12.7563 10.9755 12.8871 11.0017 13.0193 11.0017C13.1514 11.0017 13.2822 10.9755 13.4042 10.9247C13.5261 10.8739 13.6368 10.7994 13.7299 10.7056C13.8237 10.6126 13.8981 10.5019 13.9489 10.3799C13.9997 10.258 14.0259 10.1271 14.0259 9.99502C14.0259 9.8629 13.9997 9.73209 13.9489 9.61013C13.8981 9.48817 13.8237 9.37747 13.7299 9.28443L10.7274 6.28194Z" fill="#0061FF"/>
</svg>
