<svg width="18" height="17" viewBox="0 0 18 17" fill="none" xmlns="http://www.w3.org/2000/svg">
<path d="M18 8.5875C18 7.3875 17.0625 6.75 15.75 6.75H11.9625C12.225 5.7375 12.375 4.7625 12.375 3.9375C12.375 0.675 11.475 0 10.6875 0C10.1625 0 9.7875 0.0375 9.2625 0.375C9.1125 0.45 9.0375 0.6 9 0.75L8.4375 3.7875C7.8375 5.4 6.3 6.7875 5.0625 7.725V15.75C5.475 15.75 6 15.975 6.4875 16.2375C7.0875 16.5375 7.725 16.8375 8.4375 16.8375H13.8C14.925 16.8375 15.75 15.9375 15.75 15.15C15.75 15 15.75 14.85 15.7125 14.7375C16.425 14.475 16.875 13.875 16.875 13.2C16.875 12.8625 16.8 12.5625 16.6875 12.3375C17.1 12.0375 17.55 11.55 17.55 10.95C17.55 10.65 17.4 10.275 17.175 10.0125C17.6625 9.6375 18 9.1125 18 8.5875Z" fill="#0061FF"/>
<path d="M4.5 16.875H1.125C0.4875 16.875 0 16.3875 0 15.75V7.875C0 7.2375 0.4875 6.75 1.125 6.75H4.5C5.1375 6.75 5.625 7.2375 5.625 7.875V15.75C5.625 16.3875 5.1375 16.875 4.5 16.875Z" fill="#0061FF"/>
</svg>
