<svg width="17" height="16" viewBox="0 0 17 16" fill="none" xmlns="http://www.w3.org/2000/svg">
<path fill-rule="evenodd" clip-rule="evenodd" d="M1.49972 5.04767L-2.98557e-05 7.76922L5.59145 11.695C8.66676 13.8542 11.1958 15.6173 11.2115 15.6131C11.2272 15.6089 12.5361 12.8174 14.12 9.4098L16.9999 3.21418L14.3402 1.60709L11.6806 1.3652e-05L7.34004 1.16306L2.99948 2.32611L1.49972 5.04767ZM6.31602 2.52055C6.32374 2.54938 4.61524 5.27859 4.56992 5.30983C4.53812 5.33178 3.95397 3.1857 3.97974 3.14166C4.00319 3.10156 6.30754 2.48892 6.31602 2.52055ZM11.5453 2.28072C11.7253 2.93172 11.8336 3.37077 11.8137 3.36904C11.7592 3.36423 8.91276 1.85334 8.90522 1.82519C8.90142 1.81102 9.426 1.66216 10.0709 1.49442L11.2435 1.18947L11.5453 2.28072ZM11.2195 4.24285C11.2297 4.25634 9.95063 4.61227 8.37722 5.03387C6.80381 5.45546 5.51826 5.78713 5.52047 5.77093C5.52263 5.7547 6.00436 4.97677 6.59098 4.04219L7.65757 2.34292L9.42932 3.28064C10.4038 3.7964 11.2094 4.22939 11.2195 4.24285ZM3.71521 6.27134C3.71036 6.27967 3.25598 6.40297 2.70547 6.54535L1.70458 6.80422L2.42633 5.49057L3.1481 4.17691L3.43607 5.21656C3.59448 5.78837 3.72007 6.26305 3.71521 6.27134ZM13.4818 2.28613C14.0298 2.6179 14.6088 2.96902 14.7684 3.06647L15.0584 3.24364L14.0418 3.51604L13.0252 3.78844L12.7439 2.73873C12.5892 2.16139 12.4678 1.68766 12.474 1.686C12.4802 1.68434 12.9337 1.95438 13.4818 2.28613ZM6.11859 9.62078C7.18525 10.9448 8.11552 12.0997 8.1858 12.1872C8.2567 12.2754 8.28667 12.3301 8.2531 12.3098C8.12614 12.2332 1.90999 7.85622 1.90577 7.84044C1.90332 7.83132 2.41383 7.68651 3.04028 7.51866L4.1792 7.21348L6.11859 9.62078ZM12.0008 5.14406C12.0143 5.19365 10.6935 13.5896 10.6713 13.5956C10.6491 13.6015 5.30734 6.99076 5.29421 6.94109C5.29065 6.92756 6.79665 6.51214 8.64091 6.01797C10.4852 5.52381 11.9971 5.13057 12.0008 5.14406ZM15.3849 4.2287C15.3892 4.24448 12.1943 11.1431 12.1227 11.273C12.1037 11.3073 12.1024 11.245 12.1197 11.1331C12.1368 11.0222 12.365 9.55691 12.6267 7.87694L13.1026 4.82246L14.2415 4.51729C14.868 4.34943 15.3825 4.21958 15.3849 4.2287Z" fill="#359766"/>
</svg>
