<svg width="3" height="7" viewBox="0 0 3 7" fill="none" xmlns="http://www.w3.org/2000/svg">
<path d="M1.10001 2.00002H2.10002L1.00001 7.00006H0L1.10001 2.00002ZM1.94002 0C1.84112 0 1.74445 0.0293248 1.66223 0.084266C1.58 0.139207 1.51592 0.217297 1.47807 0.308661C1.44023 0.400025 1.43033 0.500559 1.44962 0.59755C1.46891 0.694542 1.51653 0.783634 1.58646 0.853561C1.65639 0.923488 1.74548 0.971109 1.84247 0.990401C1.93946 1.00969 2.04 0.999792 2.13136 0.961948C2.22272 0.924104 2.30081 0.860017 2.35576 0.777792C2.4107 0.695567 2.44002 0.598896 2.44002 0.500004C2.44002 0.367395 2.38734 0.240217 2.29357 0.146448C2.1998 0.052679 2.07263 0 1.94002 0Z" fill="black"/>
</svg>
