<svg width="9" height="8" viewBox="0 0 9 8" fill="none" xmlns="http://www.w3.org/2000/svg">
<path d="M5.48998 3.14999L7.19998 5.39998H1.79999L3.14999 3.64499L4.09499 4.85999L5.39998 3.14999H5.48998ZM2.92499 3.14999C3.28499 3.14999 3.59999 2.83499 3.59999 2.47499C3.59999 2.11499 3.28499 1.79999 2.92499 1.79999C2.56499 1.79999 2.24999 2.11499 2.24999 2.47499C2.24999 2.83499 2.56499 3.14999 2.92499 3.14999ZM8.99997 0.899997V6.29998C8.99997 6.79498 8.59497 7.19998 8.09998 7.19998H0.899997C0.404999 7.19998 0 6.79498 0 6.29998V0.899997C0 0.404999 0.404999 0 0.899997 0H8.09998C8.59497 0 8.99997 0.404999 8.99997 0.899997ZM8.09998 2.15999V0.899997H0.899997V6.29998H8.09998V2.15999Z" fill="black"/>
</svg>
