<svg width="20" height="12" viewBox="0 0 20 12" fill="none" xmlns="http://www.w3.org/2000/svg">
<path fill-rule="evenodd" clip-rule="evenodd" d="M0.556456 0.0252806C0.304106 0.102038 0.09096 0.29918 0.0283592 0.513646C0.00261933 0.601887 -0.00477273 1.79196 0.00285024 4.61444L0.0136412 8.59093L0.103995 8.90443C0.631861 10.7356 2.39316 11.9718 4.19753 11.7776C4.76843 11.7161 5.3555 11.5155 5.86855 11.2068C6.30365 10.9449 6.77872 10.4846 7.12063 9.99342C7.2154 9.8573 7.29774 9.74592 7.30361 9.74592C7.30949 9.74592 7.39209 9.86225 7.48716 10.0044C7.58226 10.1466 7.78558 10.3948 7.93899 10.556C8.72172 11.3785 9.65142 11.785 10.7536 11.7864C11.8409 11.7879 12.7364 11.4176 13.4934 10.6535C13.956 10.1865 14.2252 9.74988 14.4292 9.13543C14.5651 8.72593 14.6146 8.40128 14.6145 7.92031C14.6137 6.03413 13.2623 4.38734 11.4559 4.07133C10.0616 3.82746 8.63255 4.37968 7.71209 5.51804C7.56708 5.69737 7.42443 5.89441 7.39512 5.95589C7.36582 6.01737 7.32625 6.06248 7.30721 6.05614C7.28817 6.04977 7.22052 5.9551 7.15686 5.84567C6.81739 5.26223 6.28118 4.77043 5.61115 4.42806C4.71477 3.96999 3.56539 3.88775 2.62628 4.21452C2.22807 4.35305 2.14943 4.38978 1.81629 4.59273L1.51365 4.7771L1.51332 2.70754L1.51299 0.637956L1.43554 0.471604C1.27467 0.126161 0.88134 -0.073554 0.556456 0.0252806ZM14.3351 4.00507C14.0482 4.11449 13.8752 4.37978 13.8733 4.71344C13.8715 5.03489 13.776 4.89092 15.432 7.06498C15.8299 7.58737 16.0249 7.86919 16.0054 7.89374C15.7506 8.2146 13.98 10.6044 13.9355 10.6876C13.8407 10.8649 13.8503 11.1903 13.9564 11.3965C14.0829 11.6423 14.2886 11.7589 14.5955 11.7589C15.0142 11.7589 15.1948 11.6104 15.7455 10.8126C16.0191 10.4163 16.9104 9.20436 16.9293 9.20298C16.9487 9.20156 17.2636 9.62217 18.1359 10.8147C18.7711 11.683 18.837 11.7403 19.2304 11.7662C19.422 11.7789 19.4716 11.7691 19.6306 11.6873C19.7763 11.6123 19.8299 11.5608 19.9023 11.4255C20.009 11.2264 20.0319 10.9075 19.953 10.719C19.9264 10.6553 19.7238 10.3583 19.5029 10.059C19.282 9.75978 18.9048 9.24815 18.6647 8.92212C18.4246 8.59604 18.1604 8.23965 18.0776 8.13012C17.9949 8.02056 17.9165 7.91308 17.9034 7.89126C17.8892 7.86757 17.9964 7.69597 18.1694 7.46543C18.5083 7.0137 19.1555 6.14547 19.5902 5.55943C19.7585 5.33245 19.9181 5.10495 19.9447 5.05384C20.015 4.91913 20.0073 4.53244 19.9311 4.3646C19.7627 3.99371 19.2885 3.8665 18.8501 4.07453C18.7157 4.13829 18.7649 4.07796 17.9125 5.22494C17.5483 5.71499 17.181 6.20896 17.0962 6.32265L16.9421 6.52939L16.8832 6.45465C16.8508 6.41356 16.7148 6.23144 16.581 6.04994C16.1808 5.50722 15.4154 4.47769 15.2807 4.30094C15.0633 4.01579 14.6478 3.88577 14.3351 4.00507ZM4.51865 5.75538C5.51014 6.11092 6.12684 6.9573 6.1399 7.98043C6.14466 8.35105 6.09496 8.61281 5.9655 8.89935C5.52261 9.87971 4.42916 10.428 3.35554 10.208C3.22192 10.1806 2.97416 10.0903 2.80065 10.0058C2.53305 9.87541 2.4457 9.8106 2.20398 9.56307C1.89199 9.2436 1.73455 8.98244 1.60787 8.57443C1.49431 8.20869 1.50124 7.64089 1.6238 7.27093C1.83844 6.62291 2.28195 6.12736 2.91057 5.83319C3.22869 5.68433 3.48945 5.63734 3.90816 5.65338C4.19545 5.66437 4.32541 5.68608 4.51865 5.75538ZM11.2418 5.68892C11.3868 5.71829 11.6291 5.80458 11.8056 5.88972C12.6543 6.29919 13.1997 7.29301 13.0696 8.19308C12.987 8.76398 12.7899 9.15242 12.3721 9.56805C12.1371 9.80179 12.0312 9.87944 11.7748 10.006C11.1982 10.2907 10.629 10.3341 10.0349 10.1389C9.31538 9.90257 8.70548 9.22753 8.52685 8.46988C8.46369 8.20193 8.46369 7.69294 8.52685 7.42498C8.73686 6.53418 9.51272 5.81231 10.4236 5.66021C10.6187 5.62764 11.0061 5.64123 11.2418 5.68892Z" fill="#75839D"/>
</svg>
