<svg width="2" height="6" viewBox="0 0 2 6" fill="none" xmlns="http://www.w3.org/2000/svg">
<path d="M1.3846 5.30764C1.3846 5.67687 1.06153 5.99994 0.692301 5.99994C0.323074 5.99994 0 5.67687 0 5.30764C0 4.93842 0.323074 4.61534 0.692301 4.61534C1.06153 4.61534 1.3846 4.93842 1.3846 5.30764ZM1.3846 2.99997C1.3846 3.3692 1.06153 3.69227 0.692301 3.69227C0.323074 3.69227 0 3.3692 0 2.99997C0 2.63074 0.323074 2.30767 0.692301 2.30767C1.06153 2.30767 1.3846 2.63074 1.3846 2.99997ZM1.3846 0.692301C1.3846 1.06153 1.06153 1.3846 0.692301 1.3846C0.323074 1.3846 0 1.06153 0 0.692301C0 0.323074 0.323074 0 0.692301 0C1.06153 0 1.3846 0.323074 1.3846 0.692301Z" fill="black"/>
</svg>
