<svg width="21" height="16" viewBox="0 0 21 16" fill="none" xmlns="http://www.w3.org/2000/svg">
<path d="M10.4416 0.0823008C10.279 0.011965 10.1006 -0.0139738 9.92477 0.00713148C9.74889 0.0282368 9.58176 0.0956302 9.44044 0.202434L4.65515 3.98662H1.00111C0.735597 3.98662 0.480962 4.09209 0.293218 4.27984C0.105473 4.46758 0 4.72222 0 4.98773V10.9944C0 11.2599 0.105473 11.5145 0.293218 11.7023C0.480962 11.89 0.735597 11.9955 1.00111 11.9955H4.65515L9.39039 15.7797C9.56652 15.921 9.78526 15.9986 10.0111 15.9999C10.1606 16.0024 10.3085 15.968 10.4416 15.8998C10.6119 15.8187 10.7559 15.691 10.8568 15.5316C10.9578 15.3722 11.0116 15.1875 11.0122 14.9988V0.983298C11.0116 0.794603 10.9578 0.609901 10.8568 0.450487C10.7559 0.291073 10.6119 0.163439 10.4416 0.0823008ZM9.00997 12.9165L5.62622 10.2135C5.45009 10.0722 5.23135 9.99458 5.00554 9.99327H2.00221V5.98883H5.00554C5.23135 5.98753 5.45009 5.90991 5.62622 5.76859L9.00997 3.0656V12.9165ZM17.6796 2.32478C17.491 2.13627 17.2354 2.03036 16.9688 2.03036C16.7022 2.03036 16.4465 2.13627 16.258 2.32478C16.0695 2.51329 15.9636 2.76897 15.9636 3.03557C15.9636 3.30216 16.0695 3.55784 16.258 3.74635C16.8475 4.33494 17.3081 5.03972 17.6106 5.8159C17.9131 6.59207 18.0508 7.42269 18.015 8.25496C17.9793 9.08723 17.7708 9.90295 17.4028 10.6503C17.0348 11.3977 16.5154 12.0603 15.8776 12.5961C15.7227 12.7286 15.6119 12.9052 15.56 13.1023C15.5081 13.2994 15.5177 13.5076 15.5873 13.6992C15.657 13.8907 15.7834 14.0564 15.9498 14.1742C16.1161 14.2919 16.3145 14.3561 16.5183 14.3581C16.7522 14.3586 16.9789 14.2771 17.159 14.1278C18.0109 13.4143 18.7049 12.5314 19.1971 11.5351C19.6892 10.5388 19.9687 9.45104 20.0176 8.34091C20.0666 7.23079 19.884 6.12262 19.4815 5.08688C19.079 4.05114 18.4653 3.11051 17.6796 2.32478ZM14.8464 5.15792C14.7531 5.06457 14.6423 4.99053 14.5203 4.94001C14.3984 4.8895 14.2676 4.8635 14.1356 4.8635C14.0036 4.8635 13.8729 4.8895 13.751 4.94001C13.629 4.99053 13.5182 5.06457 13.4249 5.15792C13.3315 5.25126 13.2575 5.36207 13.207 5.48403C13.1564 5.60598 13.1304 5.7367 13.1304 5.8687C13.1304 6.00071 13.1564 6.13142 13.207 6.25338C13.2575 6.37533 13.3315 6.48615 13.4249 6.57949C13.8009 6.95325 14.0133 7.46089 14.0155 7.99105C14.0157 8.28272 13.9523 8.57092 13.8295 8.83549C13.7067 9.10006 13.5276 9.33462 13.3047 9.52274C13.2033 9.60679 13.1196 9.71 13.0581 9.82648C12.9967 9.94295 12.9589 10.0704 12.9468 10.2015C12.9347 10.3326 12.9486 10.4649 12.9877 10.5906C13.0268 10.7164 13.0903 10.8331 13.1746 10.9343C13.2593 11.0349 13.3631 11.1179 13.4799 11.1784C13.5967 11.2389 13.7244 11.2758 13.8555 11.287C13.9866 11.2981 14.1186 11.2833 14.2439 11.2434C14.3693 11.2035 14.4856 11.1393 14.5861 11.0544C15.0337 10.6791 15.3938 10.2105 15.6411 9.68126C15.8884 9.15207 16.017 8.57518 16.0177 7.99105C16.0121 6.92999 15.5917 5.9132 14.8464 5.15792Z" fill="white"/>
</svg>
