<svg width="20" height="14" viewBox="0 0 20 14" fill="none" xmlns="http://www.w3.org/2000/svg">
<path d="M15.0125 12.4978V12.4978L4.00951 12.4978C3.34629 12.4978 2.71024 12.2343 2.24127 11.7653C1.7723 11.2964 1.50884 10.6603 1.50884 9.9971C1.50884 9.33388 1.7723 8.69783 2.24127 8.22886C2.71024 7.7599 3.34629 7.49643 4.00951 7.49643C4.14216 7.49643 4.26937 7.44374 4.36316 7.34995C4.45695 7.25615 4.50965 7.12894 4.50965 6.9963V6.99522C4.51246 5.69387 4.97649 4.43566 5.8193 3.4441C6.6621 2.45255 7.82912 1.79187 9.11301 1.57942C10.3969 1.36698 11.7145 1.61654 12.8318 2.28376C13.9489 2.95089 14.7934 3.99238 15.2153 5.22324M15.0125 12.4978L15.2155 5.22374C15.2155 5.22357 15.2154 5.2234 15.2153 5.22324M15.0125 12.4978L15.0182 12.4977M15.0125 12.4978L15.0182 12.4977M15.2153 5.22324C15.2447 5.30803 15.2964 5.38336 15.3649 5.44133C15.4335 5.49942 15.5166 5.53792 15.6053 5.55279M15.2153 5.22324L15.6053 5.55279M15.0182 12.4977C15.888 12.4878 16.7229 12.1544 17.3603 11.5625C17.9977 10.9706 18.392 10.1627 18.4662 9.29602C18.5405 8.42936 18.2895 7.56609 17.7621 6.87438C17.2348 6.18266 16.4687 5.71205 15.6134 5.55421L15.6134 5.55414M15.0182 12.4977L15.6134 5.55414M15.6134 5.55414L15.6053 5.55279M15.6134 5.55414L15.6053 5.55279M15.9743 4.40529L16.067 4.61811L16.2894 4.68468C17.3238 4.99429 18.2124 5.6654 18.7932 6.5756C19.374 7.4858 19.6083 8.57444 19.4533 9.64297C19.2983 10.7115 18.7644 11.6887 17.9489 12.3964C17.1336 13.1039 16.0912 13.4949 15.0118 13.498L4.00951 13.498L4.00846 13.498C3.1504 13.4999 2.32156 13.1865 1.67934 12.6174C1.03712 12.0484 0.626238 11.2633 0.524729 10.4113C0.423219 9.55925 0.63815 8.69961 1.12871 7.99561C1.61926 7.29161 2.35128 6.79228 3.18574 6.59244L3.52116 6.51211L3.56528 6.17005C3.7473 4.75912 4.38704 3.44683 5.38644 2.43438C6.38583 1.42194 7.68971 0.765216 9.09816 0.564913C10.5066 0.36461 11.9419 0.631781 13.1839 1.32546C14.4259 2.01914 15.4062 3.10105 15.9743 4.40529Z" fill="#75839D" stroke="#75839D"/>
</svg>
