<svg width="30" height="25" viewBox="0 0 30 25" fill="none" xmlns="http://www.w3.org/2000/svg">
<path d="M29.3797 1.74755C29.3799 1.51167 29.3175 1.27996 29.199 1.07602C29.0805 0.872082 28.91 0.703198 28.705 0.586568C28.5 0.469938 28.2677 0.409729 28.0318 0.412072C27.7959 0.414415 27.5649 0.479227 27.3622 0.599908C26.5806 1.06515 25.7391 1.42144 24.861 1.6589C23.607 0.582857 22.0076 -0.00597239 20.3552 4.56775e-05C18.5425 0.00213246 16.8015 0.708615 15.4999 1.97031C14.1983 3.23201 13.438 4.95016 13.3794 6.76197C9.80581 6.19209 6.56693 4.32685 4.28043 1.52193C4.14266 1.35478 3.96672 1.22321 3.76744 1.13832C3.56816 1.05343 3.35139 1.01771 3.1354 1.03416C2.91955 1.05194 2.71127 1.12202 2.52857 1.23836C2.34588 1.3547 2.19428 1.51379 2.08688 1.70188C1.53605 2.66314 1.21969 3.74075 1.1635 4.84722C1.1073 5.95369 1.31285 7.05782 1.76345 8.06994L1.76085 8.07254C1.55832 8.19728 1.39119 8.37189 1.27543 8.57967C1.15966 8.78745 1.09914 9.02146 1.09965 9.25932C1.0972 9.45553 1.10897 9.65166 1.13486 9.84617C1.27126 11.5265 2.01596 13.0994 3.2293 14.2698C3.14699 14.4266 3.09675 14.5982 3.08152 14.7747C3.0663 14.9511 3.08638 15.1288 3.14061 15.2974C3.6696 16.9455 4.79454 18.337 6.29531 19.1994C4.77057 19.789 3.12423 19.9946 1.50132 19.798C1.20094 19.7603 0.896677 19.8258 0.638429 19.9838C0.380181 20.1417 0.183286 20.3828 0.080042 20.6674C-0.0232022 20.952 -0.0266651 21.2632 0.0702211 21.55C0.167107 21.8368 0.35859 22.0822 0.613259 22.2458C3.40443 24.0435 6.65431 24.9993 9.97431 24.9989C13.7392 25.0412 17.4126 23.8382 20.423 21.5768C23.4335 19.3154 25.6121 16.1225 26.6202 12.4948C27.0917 10.9145 27.3324 9.27439 27.3349 7.62526C27.3349 7.53788 27.3349 7.4479 27.3336 7.35792C28.0308 6.60598 28.5709 5.72242 28.9223 4.75903C29.2737 3.79565 29.4292 2.77181 29.3797 1.74755ZM24.9639 6.03683C24.7434 6.2977 24.6317 6.6335 24.6522 6.9745C24.6653 7.19485 24.664 7.41653 24.664 7.62526C24.6613 9.01883 24.457 10.4047 24.0576 11.7398C23.2343 14.8265 21.3989 17.5476 18.8455 19.4674C16.2921 21.3871 13.1682 22.3945 9.97431 22.328C8.82702 22.3284 7.68367 22.1936 6.56793 21.9264C7.99071 21.4678 9.32103 20.761 10.4973 19.8384C10.7139 19.6679 10.8725 19.4344 10.9512 19.1702C11.0299 18.9059 11.0249 18.6238 10.9369 18.3625C10.8488 18.1011 10.6821 17.8735 10.4596 17.7107C10.237 17.5479 9.96957 17.4579 9.69387 17.4532C8.58391 17.4359 7.52397 16.9885 6.73741 16.2051C6.93695 16.1673 7.13518 16.1204 7.3321 16.0643C7.62057 15.9822 7.87301 15.8054 8.04877 15.5624C8.22454 15.3193 8.3134 15.0242 8.30105 14.7245C8.2887 14.4249 8.17586 14.1381 7.9807 13.9103C7.78553 13.6826 7.5194 13.5272 7.22516 13.4691C6.58086 13.3418 5.97459 13.0677 5.45346 12.6681C4.93234 12.2684 4.5104 11.7539 4.22044 11.1647C4.46179 11.1976 4.70468 11.2181 4.94814 11.226C5.23738 11.2303 5.5205 11.1426 5.75658 10.9754C5.99266 10.8083 6.16946 10.5704 6.26141 10.2961C6.34952 10.0194 6.34498 9.72143 6.24849 9.44749C6.152 9.17355 5.96882 8.93854 5.72671 8.77811C5.13932 8.38679 4.65816 7.85589 4.32632 7.23296C3.99449 6.61002 3.82233 5.91451 3.82529 5.20872C3.82529 5.12004 3.82789 5.03136 3.83311 4.94398C6.82616 7.73537 10.7083 9.38088 14.7957 9.59059C15.002 9.59872 15.2074 9.55986 15.3965 9.47695C15.5856 9.39404 15.7534 9.26924 15.8872 9.11198C16.0197 8.9532 16.1135 8.76584 16.1612 8.56466C16.2089 8.36348 16.2093 8.15397 16.1623 7.95261C16.0859 7.63393 16.047 7.30743 16.0463 6.97972C16.0475 5.83731 16.5018 4.74204 17.3096 3.93423C18.1175 3.12642 19.2127 2.67207 20.3551 2.67087C20.9429 2.66929 21.5246 2.78958 22.0636 3.02415C22.6025 3.25871 23.087 3.60246 23.4864 4.03368C23.6404 4.19939 23.8342 4.32293 24.0495 4.39256C24.2647 4.46219 24.4942 4.4756 24.7161 4.4315C25.2647 4.32474 25.8054 4.18096 26.3346 4.00114C25.9736 4.7396 25.5124 5.42464 24.9639 6.03683Z" fill="#0061FF"/>
</svg>
