<svg width="14" height="14" viewBox="0 0 14 14" fill="none" xmlns="http://www.w3.org/2000/svg">
<path d="M9.54669 7.4965C10.2326 6.95687 10.7332 6.21689 10.9789 5.37949C11.2247 4.54209 11.2033 3.64892 10.9177 2.82424C10.6322 1.99956 10.0967 1.28438 9.38583 0.778195C8.67491 0.272013 7.8239 0 6.95119 0C6.07848 0 5.22747 0.272013 4.51655 0.778195C3.80564 1.28438 3.27017 1.99956 2.98464 2.82424C2.69911 3.64892 2.67773 4.54209 2.92346 5.37949C3.16919 6.21689 3.66982 6.95687 4.3557 7.4965C3.18043 7.96736 2.15497 8.74832 1.38864 9.75613C0.62231 10.7639 0.143833 11.9608 0.00421984 13.2192C-0.00588608 13.3111 0.00220259 13.404 0.0280238 13.4928C0.0538451 13.5815 0.0968933 13.6643 0.154711 13.7364C0.271478 13.882 0.441315 13.9753 0.626859 13.9957C0.812403 14.0161 0.998455 13.962 1.14409 13.8452C1.28972 13.7285 1.383 13.5586 1.40341 13.3731C1.55703 12.0055 2.20912 10.7425 3.2351 9.8253C4.26108 8.90812 5.58901 8.4011 6.96518 8.4011C8.34136 8.4011 9.66929 8.90812 10.6953 9.8253C11.7212 10.7425 12.3733 12.0055 12.527 13.3731C12.546 13.545 12.628 13.7038 12.7572 13.8187C12.8864 13.9337 13.0536 13.9968 13.2266 13.9957H13.3035C13.4869 13.9746 13.6545 13.8819 13.7698 13.7378C13.8851 13.5936 13.9388 13.4097 13.9192 13.2262C13.7789 11.9643 13.2978 10.7643 12.5276 9.75493C11.7573 8.74557 10.7268 7.96486 9.54669 7.4965ZM6.95119 6.99979C6.39773 6.99979 5.85669 6.83567 5.3965 6.52818C4.93631 6.22069 4.57763 5.78364 4.36583 5.2723C4.15403 4.76097 4.09861 4.19831 4.20658 3.65547C4.31456 3.11264 4.58108 2.61402 4.97244 2.22266C5.3638 1.8313 5.86242 1.56478 6.40526 1.4568C6.94809 1.34883 7.51075 1.40424 8.02209 1.61605C8.53342 1.82785 8.97047 2.18652 9.27796 2.64672C9.58545 3.10691 9.74957 3.64794 9.74957 4.20141C9.74957 4.94359 9.45474 5.65537 8.92994 6.18016C8.40515 6.70496 7.69337 6.99979 6.95119 6.99979Z" fill="#9EA8BA"/>
</svg>
