<svg width="20" height="21" viewBox="0 0 20 21" fill="none" xmlns="http://www.w3.org/2000/svg">
<path d="M13.7133 10.7683C14.6986 9.99319 15.4177 8.93024 15.7707 7.72736C16.1236 6.52448 16.0929 5.24148 15.6828 4.05687C15.2726 2.87226 14.5035 1.84494 13.4823 1.11784C12.4611 0.390732 11.2386 0 9.98503 0C8.73143 0 7.50899 0.390732 6.4878 1.11784C5.4666 1.84494 4.69743 2.87226 4.28728 4.05687C3.87714 5.24148 3.84642 6.52448 4.1994 7.72736C4.55238 8.93024 5.27151 9.99319 6.25673 10.7683C4.56853 11.4447 3.09551 12.5665 1.99471 14.0142C0.893916 15.4619 0.206609 17.1811 0.00606158 18.9887C-0.00845506 19.1206 0.0031639 19.2542 0.0402548 19.3817C0.0773457 19.5091 0.139182 19.6281 0.222234 19.7316C0.389964 19.9408 0.633926 20.0748 0.900451 20.1042C1.16698 20.1335 1.43423 20.0557 1.64342 19.888C1.85261 19.7202 1.98661 19.4763 2.01592 19.2098C2.23659 17.2453 3.17329 15.431 4.64706 14.1135C6.12082 12.7961 8.02833 12.0677 10.0051 12.0677C11.9819 12.0677 13.8894 12.7961 15.3632 14.1135C16.837 15.431 17.7737 17.2453 17.9943 19.2098C18.0217 19.4567 18.1395 19.6847 18.3251 19.8499C18.5106 20.0151 18.7508 20.1057 18.9993 20.1042H19.1098C19.3732 20.0738 19.614 19.9406 19.7797 19.7336C19.9453 19.5265 20.0224 19.2624 19.9941 18.9987C19.7927 17.186 19.1016 15.4624 17.9952 14.0125C16.8887 12.5626 15.4086 11.4411 13.7133 10.7683ZM9.98503 10.0548C9.19 10.0548 8.41283 9.81908 7.75179 9.37739C7.09075 8.9357 6.57553 8.3079 6.27129 7.57339C5.96704 6.83889 5.88744 6.03065 6.04254 5.2509C6.19764 4.47115 6.58049 3.7549 7.14266 3.19274C7.70482 2.63057 8.42107 2.24773 9.20082 2.09262C9.98057 1.93752 10.7888 2.01713 11.5233 2.32137C12.2578 2.62561 12.8856 3.14083 13.3273 3.80187C13.769 4.46291 14.0048 5.24009 14.0048 6.03511C14.0048 7.10121 13.5813 8.12364 12.8274 8.87749C12.0736 9.63133 11.0511 10.0548 9.98503 10.0548Z" fill="#75839D"/>
</svg>
