<svg width="12" height="12" viewBox="0 0 12 12" fill="none" xmlns="http://www.w3.org/2000/svg">
<path d="M8.17667 3.82334C7.44708 3.09375 6.26008 3.09375 5.5305 3.82334L0.170112 9.18372C-0.0567039 9.41053 -0.0567039 9.77798 0.170112 10.0048L1.99521 11.8299C2.10862 11.9433 2.25718 12 2.40575 12C2.55431 12 2.70287 11.9433 2.81628 11.8299L8.17667 6.46951C8.90625 5.73992 8.90625 4.55292 8.17667 3.82334ZM2.40575 10.5983L1.40171 9.59426L4.96913 6.02684L5.97316 7.03087L2.40575 10.5983ZM7.35559 5.64844L6.79423 6.20981L5.79019 5.20577L6.35156 4.64441C6.61996 4.37676 7.0872 4.37676 7.35559 4.64441C7.48941 4.7786 7.56351 4.95665 7.56351 5.14642C7.56351 5.33619 7.48942 5.51424 7.35559 5.64844ZM9.21434 3.36631C9.3629 3.36631 9.51147 3.3096 9.62488 3.1962L10.4837 2.33733C10.7106 2.11051 10.7106 1.74307 10.4837 1.51626C10.2569 1.28945 9.88949 1.28944 9.66268 1.51626L8.80381 2.37513C8.57699 2.60194 8.57699 2.96938 8.80381 3.1962C8.91721 3.3096 9.06578 3.36631 9.21434 3.36631ZM7.40436 1.79561V0.580645C7.40436 0.260079 7.14428 0 6.82372 0C6.50315 0 6.24307 0.260083 6.24307 0.580645V1.79561C6.24307 2.11618 6.50315 2.37626 6.82372 2.37626C7.14428 2.37626 7.40436 2.11618 7.40436 1.79561ZM4.43347 3.36631C4.58203 3.36631 4.7306 3.3096 4.84401 3.1962C5.07082 2.96938 5.07082 2.60157 4.84401 2.37513L3.98476 1.51626C3.75794 1.28944 3.3905 1.28944 3.16369 1.51626C2.93688 1.74307 2.93687 2.11089 3.16369 2.33733L4.02294 3.1962C4.13634 3.3096 4.28491 3.36631 4.43347 3.36631ZM9.62488 7.156C9.39806 6.92918 9.03062 6.92918 8.80381 7.156C8.57699 7.38243 8.57699 7.75025 8.80381 7.97707L9.66268 8.83632C9.77609 8.94972 9.92465 9.00643 10.0732 9.00643C10.2218 9.00643 10.3703 8.94972 10.4837 8.83632C10.7106 8.60988 10.7106 8.24206 10.4837 8.01525L9.62488 7.156ZM11.4194 4.59564H10.2044C9.88382 4.59564 9.62374 4.85572 9.62374 5.17629C9.62374 5.49685 9.88382 5.75693 10.2044 5.75693H11.4194C11.7399 5.75693 12 5.49685 12 5.17629C12 4.85572 11.7399 4.59564 11.4194 4.59564Z" fill="white"/>
</svg>
