<svg width="17" height="17" viewBox="0 0 17 17" fill="none" xmlns="http://www.w3.org/2000/svg">
<path d="M10.506 10.3955C9.93778 10.8536 9.22988 11.1034 8.49999 11.1034C7.7701 11.1034 7.06221 10.8536 6.494 10.3955C6.32041 10.2512 6.09662 10.1818 5.87186 10.2025C5.6471 10.2232 5.43978 10.3324 5.2955 10.506C5.15122 10.6796 5.08181 10.9034 5.10253 11.1281C5.12325 11.3529 5.23241 11.5602 5.406 11.7045C6.27413 12.4292 7.36912 12.8262 8.49999 12.8262C9.63086 12.8262 10.7259 12.4292 11.594 11.7045C11.7676 11.5602 11.8767 11.3529 11.8975 11.1281C11.9182 10.9034 11.8488 10.6796 11.7045 10.506C11.6331 10.42 11.5454 10.349 11.4465 10.2969C11.3476 10.2449 11.2394 10.2128 11.1281 10.2025C10.9034 10.1818 10.6796 10.2512 10.506 10.3955ZM5.95 7.64999C6.11811 7.64999 6.28245 7.60014 6.42223 7.50674C6.56201 7.41334 6.67096 7.28059 6.73529 7.12527C6.79963 6.96996 6.81646 6.79905 6.78366 6.63417C6.75087 6.46928 6.66991 6.31783 6.55104 6.19895C6.43216 6.08008 6.28071 5.99912 6.11582 5.96633C5.95094 5.93353 5.78003 5.95036 5.62472 6.0147C5.4694 6.07903 5.33665 6.18798 5.24325 6.32776C5.14985 6.46754 5.1 6.63188 5.1 6.79999C5.1 7.02543 5.18955 7.24163 5.34896 7.40103C5.50836 7.56044 5.72456 7.64999 5.95 7.64999ZM11.05 5.94999C10.8819 5.94999 10.7175 5.99984 10.5778 6.09324C10.438 6.18664 10.329 6.31939 10.2647 6.47471C10.2004 6.63003 10.1835 6.80094 10.2163 6.96582C10.2491 7.1307 10.3301 7.28216 10.449 7.40103C10.5678 7.51991 10.7193 7.60086 10.8842 7.63366C11.049 7.66646 11.22 7.64962 11.3753 7.58529C11.5306 7.52095 11.6633 7.41201 11.7567 7.27223C11.8501 7.13244 11.9 6.96811 11.9 6.79999C11.9 6.57456 11.8104 6.35836 11.651 6.19895C11.4916 6.03955 11.2754 5.94999 11.05 5.94999ZM8.49999 0C6.81885 0 5.17547 0.498516 3.77765 1.43251C2.37984 2.3665 1.29037 3.69401 0.647027 5.24718C0.00368291 6.80035 -0.164645 8.50942 0.163329 10.1583C0.491303 11.8071 1.30085 13.3216 2.48959 14.5104C3.67834 15.6991 5.19289 16.5087 6.84173 16.8367C8.49056 17.1646 10.1996 16.9963 11.7528 16.353C13.306 15.7096 14.6335 14.6201 15.5675 13.2223C16.5015 11.8245 17 10.1811 17 8.49999C17 7.38376 16.7801 6.27845 16.353 5.24718C15.9258 4.21592 15.2997 3.27889 14.5104 2.48959C13.7211 1.70029 12.7841 1.07419 11.7528 0.647023C10.7215 0.219859 9.61623 0 8.49999 0ZM8.49999 15.3C7.15508 15.3 5.84037 14.9012 4.72212 14.154C3.60387 13.4068 2.7323 12.3448 2.21762 11.1022C1.70295 9.8597 1.56828 8.49245 1.83066 7.17338C2.09304 5.85431 2.74068 4.64267 3.69167 3.69167C4.64267 2.74067 5.85431 2.09304 7.17338 1.83066C8.49245 1.56828 9.8597 1.70294 11.1022 2.21762C12.3448 2.73229 13.4068 3.60386 14.154 4.72212C14.9012 5.84037 15.3 7.15508 15.3 8.49999C15.3 10.3035 14.5836 12.0331 13.3083 13.3083C12.0331 14.5836 10.3035 15.3 8.49999 15.3Z" fill="#75839D"/>
</svg>
