<svg width="11" height="11" viewBox="0 0 11 11" fill="none" xmlns="http://www.w3.org/2000/svg">
<path d="M10.3124 4.81246H6.18745V0.687495C6.18745 0.274998 5.91245 0 5.49996 0C5.08746 0 4.81246 0.274998 4.81246 0.687495V4.81246H0.687495C0.274998 4.81246 0 5.08746 0 5.49996C0 5.91245 0.274998 6.18745 0.687495 6.18745H4.81246V10.3124C4.81246 10.7249 5.08746 10.9999 5.49996 10.9999C5.91245 10.9999 6.18745 10.7249 6.18745 10.3124V6.18745H10.3124C10.7249 6.18745 10.9999 5.91245 10.9999 5.49996C10.9999 5.08746 10.7249 4.81246 10.3124 4.81246Z" fill="#9EA8BA"/>
</svg>
