<svg width="8" height="7" viewBox="0 0 8 7" fill="none" xmlns="http://www.w3.org/2000/svg">
<path d="M4.73373 6.62722H5.68048L3.31361 0H2.36686L0 6.62722H0.946746L1.60947 4.73373H4.02367L4.73373 6.62722ZM1.94083 3.78698L2.84024 1.32544L3.73965 3.78698H1.94083ZM8 5.91716C8 6.0576 7.95836 6.19488 7.88034 6.31165C7.80231 6.42842 7.69142 6.51943 7.56167 6.57317C7.43193 6.62691 7.28916 6.64098 7.15142 6.61358C7.01368 6.58618 6.88716 6.51855 6.78786 6.41925C6.68855 6.31995 6.62093 6.19343 6.59353 6.05569C6.56613 5.91795 6.58019 5.77518 6.63393 5.64543C6.68768 5.51569 6.77869 5.40479 6.89546 5.32677C7.01222 5.24875 7.14951 5.2071 7.28994 5.2071C7.47826 5.2071 7.65887 5.28191 7.79203 5.41507C7.92519 5.54824 8 5.72884 8 5.91716ZM8 4.02367C8 4.16411 7.95836 4.30139 7.88034 4.41816C7.80231 4.53493 7.69142 4.62594 7.56167 4.67968C7.43193 4.73342 7.28916 4.74748 7.15142 4.72009C7.01368 4.69269 6.88716 4.62506 6.78786 4.52576C6.68855 4.42645 6.62093 4.29993 6.59353 4.1622C6.56613 4.02446 6.58019 3.88169 6.63393 3.75194C6.68768 3.6222 6.77869 3.5113 6.89546 3.43328C7.01222 3.35525 7.14951 3.31361 7.28994 3.31361C7.47826 3.31361 7.65887 3.38842 7.79203 3.52158C7.92519 3.65474 8 3.83535 8 4.02367ZM8 2.13018C8 2.27061 7.95836 2.4079 7.88034 2.52467C7.80231 2.64143 7.69142 2.73245 7.56167 2.78619C7.43193 2.83993 7.28916 2.85399 7.15142 2.82659C7.01368 2.7992 6.88716 2.73157 6.78786 2.63227C6.68855 2.53296 6.62093 2.40644 6.59353 2.2687C6.56613 2.13097 6.58019 1.9882 6.63393 1.85845C6.68768 1.7287 6.77869 1.61781 6.89546 1.53979C7.01222 1.46176 7.14951 1.42012 7.28994 1.42012C7.47826 1.42012 7.65887 1.49493 7.79203 1.62809C7.92519 1.76125 8 1.94186 8 2.13018Z" fill="black"/>
</svg>
