<svg width="20" height="20" viewBox="0 0 20 20" fill="none" xmlns="http://www.w3.org/2000/svg">
<path d="M9.5 11L9.5 10.5L9 10.5L6 10.5C5.86739 10.5 5.74021 10.4473 5.64644 10.3536C5.55267 10.2598 5.5 10.1326 5.5 10C5.5 9.86739 5.55267 9.74021 5.64644 9.64645C5.74021 9.55268 5.86739 9.5 6 9.5L9 9.5L9.5 9.5L9.5 9L9.5 6C9.5 5.86739 9.55268 5.74021 9.64644 5.64645C9.74021 5.55268 9.86739 5.5 10 5.5C10.1326 5.5 10.2598 5.55268 10.3535 5.64645C10.4473 5.74021 10.5 5.86739 10.5 6L10.5 9L10.5 9.5L11 9.5L14 9.5C14.1326 9.5 14.2598 9.55268 14.3535 9.64645C14.4473 9.74021 14.5 9.86739 14.5 10C14.5 10.1326 14.4473 10.2598 14.3535 10.3536C14.2598 10.4473 14.1326 10.5 14 10.5L11 10.5L10.5 10.5L10.5 11L10.5 14C10.5 14.1326 10.4473 14.2598 10.3535 14.3536C10.2598 14.4473 10.1326 14.5 10 14.5C9.86739 14.5 9.74021 14.4473 9.64644 14.3536C9.55267 14.2598 9.5 14.1326 9.5 14L9.5 11ZM15.2779 17.899C13.7156 18.9428 11.8789 19.5 10 19.5C8.75244 19.5 7.5171 19.2543 6.3645 18.7769C5.21191 18.2994 4.16464 17.5997 3.28248 16.7175C2.40033 15.8354 1.70056 14.7881 1.22314 13.6355C0.745721 12.4829 0.499997 11.2476 0.499997 10C0.499997 8.12108 1.05716 6.28435 2.10104 4.72208C3.14491 3.15982 4.62861 1.94217 6.3645 1.22314C8.1004 0.504111 10.0105 0.315978 11.8534 0.682538C13.6962 1.0491 15.3889 1.95389 16.7175 3.28249C18.0461 4.61108 18.9509 6.30382 19.3175 8.14664C19.684 9.98946 19.4959 11.8996 18.7769 13.6355C18.0578 15.3714 16.8402 16.8551 15.2779 17.899ZM14.7223 2.93251C13.3245 1.99852 11.6811 1.5 10 1.5C7.74566 1.5 5.58365 2.39553 3.98959 3.98959C2.39553 5.58365 1.5 7.74566 1.5 10C1.5 11.6811 1.99851 13.3245 2.93251 14.7223C3.8665 16.1202 5.19401 17.2096 6.74719 17.853C8.30036 18.4963 10.0094 18.6646 11.6583 18.3367C13.3071 18.0087 14.8217 17.1992 16.0104 16.0104C17.1992 14.8217 18.0087 13.3071 18.3367 11.6583C18.6646 10.0094 18.4963 8.30036 17.853 6.74719C17.2096 5.19402 16.1202 3.8665 14.7223 2.93251Z" fill="#75839D" stroke="#75839D"/>
</svg>
