<svg width="17" height="17" viewBox="0 0 17 17" fill="none" xmlns="http://www.w3.org/2000/svg">
<path d="M8.5 0C6.81886 0 5.17547 0.498516 3.77766 1.43251C2.37984 2.3665 1.29037 3.69402 0.647028 5.24719C0.00368291 6.80036 -0.164645 8.50943 0.163329 10.1583C0.491303 11.8071 1.30085 13.3217 2.4896 14.5104C3.67834 15.6991 5.1929 16.5087 6.84173 16.8367C8.49057 17.1646 10.1996 16.9963 11.7528 16.353C13.306 15.7096 14.6335 14.6202 15.5675 13.2223C16.5015 11.8245 17 10.1811 17 8.5C17 7.38376 16.7801 6.27846 16.353 5.24719C15.9258 4.21592 15.2997 3.27889 14.5104 2.48959C13.7211 1.70029 12.7841 1.07419 11.7528 0.647024C10.7215 0.219859 9.61624 0 8.5 0ZM8.5 15.3C7.15509 15.3 5.84038 14.9012 4.72212 14.154C3.60387 13.4068 2.7323 12.3448 2.21762 11.1022C1.70295 9.85971 1.56828 8.49245 1.83066 7.17338C2.09304 5.85431 2.74068 4.64267 3.69168 3.69167C4.64267 2.74068 5.85432 2.09304 7.17339 1.83066C8.49246 1.56828 9.85971 1.70294 11.1022 2.21762C12.3448 2.73229 13.4068 3.60387 14.154 4.72212C14.9012 5.84038 15.3 7.15509 15.3 8.5C15.3 10.3035 14.5836 12.0331 13.3083 13.3083C12.0331 14.5836 10.3035 15.3 8.5 15.3ZM11.9 7.65H9.35V5.1C9.35 4.87456 9.26045 4.65836 9.10104 4.49896C8.94164 4.33955 8.72544 4.25 8.5 4.25C8.27457 4.25 8.05837 4.33955 7.89896 4.49896C7.73956 4.65836 7.65 4.87456 7.65 5.1V7.65H5.1C4.87457 7.65 4.65837 7.73955 4.49896 7.89896C4.33956 8.05836 4.25 8.27456 4.25 8.5C4.25 8.72543 4.33956 8.94163 4.49896 9.10104C4.65837 9.26044 4.87457 9.35 5.1 9.35H7.65V11.9C7.65 12.1254 7.73956 12.3416 7.89896 12.501C8.05837 12.6604 8.27457 12.75 8.5 12.75C8.72544 12.75 8.94164 12.6604 9.10104 12.501C9.26045 12.3416 9.35 12.1254 9.35 11.9V9.35H11.9C12.1254 9.35 12.3416 9.26044 12.501 9.10104C12.6604 8.94163 12.75 8.72543 12.75 8.5C12.75 8.27456 12.6604 8.05836 12.501 7.89896C12.3416 7.73955 12.1254 7.65 11.9 7.65Z" fill="#75839D"/>
</svg>
