<svg width="17" height="16" viewBox="0 0 17 16" fill="none" xmlns="http://www.w3.org/2000/svg">
<path fill-rule="evenodd" clip-rule="evenodd" d="M1.49974 5.0477L-2.98559e-05 7.76928L5.59149 11.6951C8.66683 13.8543 11.1959 15.6174 11.2116 15.6132C11.2273 15.609 12.5361 12.8175 14.1201 9.40987L17 3.2142L14.3404 1.60711L11.6807 1.36521e-05L7.34009 1.16307L2.9995 2.32613L1.49974 5.0477ZM6.31606 2.52056C6.32379 2.5494 4.61528 5.27863 4.56995 5.30987C4.53815 5.33182 3.95399 3.18572 3.97977 3.14169C4.00322 3.10158 6.30759 2.48894 6.31606 2.52056ZM11.5454 2.28074C11.7254 2.93174 11.8337 3.3708 11.8138 3.36907C11.7593 3.36426 8.91282 1.85335 8.90528 1.8252C8.90149 1.81103 9.42607 1.66217 10.071 1.49443L11.2436 1.18948L11.5454 2.28074ZM11.2196 4.24288C11.2298 4.25637 9.95071 4.61231 8.37728 5.03391C6.80386 5.4555 5.5183 5.78717 5.52051 5.77097C5.52267 5.75474 6.00441 4.97681 6.59103 4.04222L7.65763 2.34294L9.42939 3.28067C10.4039 3.79642 11.2095 4.22942 11.2196 4.24288ZM3.71524 6.27139C3.71039 6.27972 3.256 6.40302 2.70549 6.5454L1.70459 6.80427L2.42634 5.49061L3.14813 4.17694L3.4361 5.2166C3.59451 5.78842 3.7201 6.26309 3.71524 6.27139ZM13.4819 2.28615C14.0299 2.61791 14.6089 2.96904 14.7685 3.06649L15.0586 3.24366L14.0419 3.51607L13.0253 3.78847L12.744 2.73875C12.5893 2.16141 12.4678 1.68767 12.4741 1.68601C12.4803 1.68435 12.9338 1.9544 13.4819 2.28615ZM6.11863 9.62085C7.1853 10.9449 8.11558 12.0998 8.18586 12.1873C8.25676 12.2755 8.28673 12.3302 8.25316 12.3099C8.1262 12.2333 1.91001 7.85628 1.90578 7.8405C1.90334 7.83138 2.41384 7.68657 3.0403 7.51871L4.17923 7.21354L6.11863 9.62085ZM12.0009 5.1441C12.0143 5.19369 10.6936 13.5897 10.6714 13.5957C10.6492 13.6016 5.30738 6.99082 5.29425 6.94114C5.29069 6.92761 6.7967 6.51219 8.64097 6.01802C10.4852 5.52385 11.9972 5.1306 12.0009 5.1441ZM15.3851 4.22873C15.3893 4.24451 12.1944 11.1432 12.1228 11.273C12.1038 11.3074 12.1025 11.2451 12.1198 11.1332C12.1369 11.0223 12.3651 9.55698 12.6268 7.87699L13.1027 4.8225L14.2416 4.51732C14.8681 4.34946 15.3826 4.21962 15.3851 4.22873Z" fill="#0061FF"/>
</svg>
