<svg width="14" height="11" viewBox="0 0 14 11" fill="none" xmlns="http://www.w3.org/2000/svg">
<path d="M7.17862 0.0565822C7.06685 0.00822599 6.94425 -0.00960706 6.82333 0.00490293C6.70241 0.0194129 6.58751 0.0657462 6.49035 0.139174L3.20044 2.74082H0.688267C0.505727 2.74082 0.330664 2.81334 0.201589 2.94241C0.0725136 3.07149 0 3.24655 0 3.42909V7.55869C0 7.74123 0.0725136 7.91629 0.201589 8.04537C0.330664 8.17444 0.505727 8.24696 0.688267 8.24696H3.20044L6.45594 10.8486C6.57703 10.9458 6.72742 10.9991 6.88267 11C6.98547 11.0017 7.08712 10.9781 7.17862 10.9312C7.29575 10.8754 7.39472 10.7877 7.46413 10.6781C7.53354 10.5685 7.57057 10.4415 7.57093 10.3118V0.676022C7.57057 0.546293 7.53354 0.41931 7.46413 0.309712C7.39472 0.200114 7.29575 0.112365 7.17862 0.0565822ZM6.1944 8.88016L3.86806 7.02184C3.74697 6.92468 3.59658 6.87132 3.44133 6.87042H1.37653V4.11736H3.44133C3.59658 4.11645 3.74697 4.06309 3.86806 3.96594L6.1944 2.10762V8.88016ZM12.3269 5.49389L13.5657 4.26189C13.6299 4.19772 13.6808 4.12153 13.7155 4.03769C13.7503 3.95384 13.7681 3.86398 13.7681 3.77322C13.7681 3.68247 13.7503 3.5926 13.7155 3.50876C13.6808 3.42491 13.6299 3.34873 13.5657 3.28455C13.5016 3.22038 13.4254 3.16947 13.3415 3.13474C13.2577 3.10001 13.1678 3.08214 13.0771 3.08214C12.9863 3.08214 12.8964 3.10001 12.8126 3.13474C12.7288 3.16947 12.6526 3.22038 12.5884 3.28455L11.3564 4.52343L10.1244 3.28455C9.9948 3.15495 9.81902 3.08214 9.63573 3.08214C9.45245 3.08214 9.27667 3.15495 9.14706 3.28455C9.01746 3.41416 8.94465 3.58994 8.94465 3.77322C8.94465 3.95651 9.01746 4.13229 9.14706 4.26189L10.3859 5.49389L9.14706 6.72589C9.08255 6.78987 9.03135 6.86599 8.99641 6.94986C8.96147 7.03374 8.94348 7.1237 8.94348 7.21456C8.94348 7.30541 8.96147 7.39538 8.99641 7.47925C9.03135 7.56312 9.08255 7.63924 9.14706 7.70322C9.21105 7.76773 9.28717 7.81894 9.37104 7.85388C9.45491 7.88882 9.54487 7.90681 9.63573 7.90681C9.72659 7.90681 9.81655 7.88882 9.90042 7.85388C9.9843 7.81894 10.0604 7.76773 10.1244 7.70322L11.3564 6.46434L12.5884 7.70322C12.6524 7.76773 12.7285 7.81894 12.8124 7.85388C12.8962 7.88882 12.9862 7.90681 13.0771 7.90681C13.1679 7.90681 13.2579 7.88882 13.3418 7.85388C13.4256 7.81894 13.5018 7.76773 13.5657 7.70322C13.6302 7.63924 13.6815 7.56312 13.7164 7.47925C13.7513 7.39538 13.7693 7.30541 13.7693 7.21456C13.7693 7.1237 13.7513 7.03374 13.7164 6.94986C13.6815 6.86599 13.6302 6.78987 13.5657 6.72589L12.3269 5.49389Z" fill="#75839D"/>
</svg>
