<svg width="20" height="18" viewBox="0 0 20 18" fill="none" xmlns="http://www.w3.org/2000/svg">
<path d="M16.9997 2.99997H15.7197L15.3997 1.99999C15.1923 1.41323 14.8075 0.905509 14.2986 0.547173C13.7898 0.188837 13.1821 -0.00237686 12.5598 2.23032e-05H7.43986C6.81142 0.00119799 6.19922 0.199702 5.68966 0.567517C5.1801 0.935333 4.79892 1.45388 4.59992 2.04999L4.27992 3.04997H2.99995C2.20431 3.04997 1.44126 3.36603 0.878664 3.92863C0.316065 4.49123 0 5.25428 0 6.04991V14.0498C0 14.8454 0.316065 15.6084 0.878664 16.171C1.44126 16.7336 2.20431 17.0497 2.99995 17.0497H16.9997C17.7953 17.0497 18.5584 16.7336 19.121 16.171C19.6836 15.6084 19.9996 14.8454 19.9996 14.0498V6.04991C20.0063 5.65177 19.9336 5.25628 19.7858 4.88652C19.638 4.51676 19.4181 4.18012 19.1388 3.89623C18.8596 3.61235 18.5267 3.38689 18.1594 3.23301C17.7921 3.07913 17.3979 2.99991 16.9997 2.99997ZM17.9997 13.9998C17.9997 14.265 17.8943 14.5193 17.7068 14.7069C17.5193 14.8944 17.2649 14.9997 16.9997 14.9997H2.99995C2.73473 14.9997 2.48038 14.8944 2.29285 14.7069C2.10532 14.5193 1.99996 14.265 1.99996 13.9998V5.99991C1.99996 5.7347 2.10532 5.48035 2.29285 5.29282C2.48038 5.10529 2.73473 4.99993 2.99995 4.99993H4.99991C5.21797 5.01131 5.43376 4.95101 5.61433 4.82822C5.7949 4.70543 5.93031 4.52692 5.99989 4.31994L6.53988 2.67997C6.60696 2.48136 6.73477 2.30885 6.90524 2.18682C7.07571 2.0648 7.28022 1.99944 7.48986 1.99999H12.6098C12.8194 1.99944 13.0239 2.0648 13.1944 2.18682C13.3649 2.30885 13.4927 2.48136 13.5598 2.67997L14.0997 4.31994C14.1639 4.51068 14.2841 4.67763 14.4447 4.79894C14.6053 4.92026 14.7987 4.99031 14.9997 4.99993H16.9997C17.2649 4.99993 17.5193 5.10529 17.7068 5.29282C17.8943 5.48035 17.9997 5.7347 17.9997 5.99991V13.9998ZM9.99982 4.99993C9.20871 4.99993 8.43536 5.23452 7.77758 5.67404C7.11979 6.11356 6.60711 6.73826 6.30437 7.46915C6.00162 8.20004 5.92241 9.00429 6.07675 9.7802C6.23109 10.5561 6.61204 11.2688 7.17144 11.8282C7.73084 12.3876 8.44356 12.7686 9.21947 12.9229C9.99538 13.0773 10.7996 12.9981 11.5305 12.6953C12.2614 12.3926 12.8861 11.8799 13.3256 11.2221C13.7652 10.5643 13.9997 9.79097 13.9997 8.99986C13.9997 7.93901 13.5783 6.92161 12.8282 6.17148C12.0781 5.42135 11.0607 4.99993 9.99982 4.99993ZM9.99982 10.9998C9.60426 10.9998 9.21759 10.8825 8.8887 10.6628C8.5598 10.443 8.30346 10.1307 8.15209 9.76521C8.00072 9.39976 7.96111 8.99764 8.03828 8.60968C8.11545 8.22173 8.30593 7.86537 8.58563 7.58567C8.86533 7.30597 9.22169 7.11549 9.60964 7.03832C9.9976 6.96115 10.3997 7.00076 10.7652 7.15213C11.1306 7.3035 11.443 7.55985 11.6627 7.88874C11.8825 8.21763 11.9998 8.6043 11.9998 8.99986C11.9998 9.53028 11.7891 10.039 11.414 10.414C11.0389 10.7891 10.5302 10.9998 9.99982 10.9998Z" fill="#75839D"/>
</svg>
