<svg width="14" height="19" viewBox="0 0 14 19" fill="none" xmlns="http://www.w3.org/2000/svg">
<path d="M6.90909 12.0909C7.82529 12.0909 8.70397 11.7269 9.35182 11.0791C9.99968 10.4312 10.3636 9.55257 10.3636 8.63636V3.45455C10.3636 2.53834 9.99968 1.65967 9.35182 1.01181C8.70397 0.36396 7.82529 0 6.90909 0C5.99289 0 5.11421 0.36396 4.46636 1.01181C3.81851 1.65967 3.45455 2.53834 3.45455 3.45455V8.63636C3.45455 9.55257 3.81851 10.4312 4.46636 11.0791C5.11421 11.7269 5.99289 12.0909 6.90909 12.0909ZM5.18182 3.45455C5.18182 2.99644 5.3638 2.55711 5.68773 2.23318C6.01165 1.90925 6.45099 1.72727 6.90909 1.72727C7.36719 1.72727 7.80653 1.90925 8.13046 2.23318C8.45438 2.55711 8.63636 2.99644 8.63636 3.45455V8.63636C8.63636 9.09446 8.45438 9.5338 8.13046 9.85773C7.80653 10.1817 7.36719 10.3636 6.90909 10.3636C6.45099 10.3636 6.01165 10.1817 5.68773 9.85773C5.3638 9.5338 5.18182 9.09446 5.18182 8.63636V3.45455ZM13.8182 8.63636C13.8182 8.40731 13.7272 8.18764 13.5652 8.02568C13.4033 7.86372 13.1836 7.77273 12.9545 7.77273C12.7255 7.77273 12.5058 7.86372 12.3439 8.02568C12.1819 8.18764 12.0909 8.40731 12.0909 8.63636C12.0909 10.0107 11.545 11.3287 10.5732 12.3005C9.60141 13.2722 8.28339 13.8182 6.90909 13.8182C5.53479 13.8182 4.21677 13.2722 3.24499 12.3005C2.27321 11.3287 1.72727 10.0107 1.72727 8.63636C1.72727 8.40731 1.63628 8.18764 1.47432 8.02568C1.31236 7.86372 1.09269 7.77273 0.863636 7.77273C0.634586 7.77273 0.414917 7.86372 0.252953 8.02568C0.0909902 8.18764 0 8.40731 0 8.63636C0.001525 10.3181 0.616396 11.9416 1.72934 13.2024C2.84229 14.4632 4.37689 15.2748 6.04545 15.485V17.2727H4.31818C4.08913 17.2727 3.86946 17.3637 3.7075 17.5257C3.54554 17.6876 3.45455 17.9073 3.45455 18.1364C3.45455 18.3654 3.54554 18.5851 3.7075 18.747C3.86946 18.909 4.08913 19 4.31818 19H9.5C9.72905 19 9.94872 18.909 10.1107 18.747C10.2726 18.5851 10.3636 18.3654 10.3636 18.1364C10.3636 17.9073 10.2726 17.6876 10.1107 17.5257C9.94872 17.3637 9.72905 17.2727 9.5 17.2727H7.77273V15.485C9.44129 15.2748 10.9759 14.4632 12.0888 13.2024C13.2018 11.9416 13.8167 10.3181 13.8182 8.63636Z" fill="#75839D"/>
</svg>
