<svg width="5" height="7" viewBox="0 0 5 7" fill="none" xmlns="http://www.w3.org/2000/svg">
<path d="M4.01859 3.17749C4.24738 3.03817 4.44046 2.84732 4.58244 2.62016C4.72441 2.393 4.81135 2.13582 4.83633 1.86911C4.84066 1.62794 4.79744 1.38828 4.70913 1.16382C4.62083 0.939354 4.48917 0.734486 4.32167 0.560915C4.15418 0.387344 3.95413 0.248471 3.73295 0.152228C3.51177 0.0559849 3.2738 0.0042574 3.03263 0H0V6.54189H3.27095C3.50045 6.53945 3.72723 6.49182 3.93832 6.40173C4.14942 6.31165 4.34071 6.18086 4.50125 6.01684C4.6618 5.85282 4.78847 5.65878 4.87402 5.4458C4.95958 5.23283 5.00234 5.00508 4.99987 4.77558V4.71951C5.00004 4.39574 4.90778 4.07864 4.73396 3.80549C4.56013 3.53234 4.31196 3.31447 4.01859 3.17749ZM0.934556 0.934556H2.89712C3.09626 0.928393 3.29253 0.983285 3.45957 1.09187C3.62662 1.20045 3.75646 1.35752 3.83168 1.54202C3.90779 1.78864 3.88317 2.05536 3.76321 2.28389C3.64326 2.51242 3.43772 2.68417 3.19151 2.76161C3.09589 2.78963 2.99676 2.80379 2.89712 2.80367H0.934556V0.934556ZM3.08403 5.60733H0.934556V3.73822H3.08403C3.28317 3.73206 3.47944 3.78695 3.64649 3.89553C3.81353 4.00411 3.94338 4.16119 4.01859 4.34568C4.0947 4.59231 4.07008 4.85903 3.95013 5.08756C3.83017 5.31609 3.62463 5.48784 3.37842 5.56528C3.28281 5.5933 3.18367 5.60746 3.08403 5.60733Z" fill="black"/>
</svg>
