<svg width="8" height="7" viewBox="0 0 8 7" fill="none" xmlns="http://www.w3.org/2000/svg">
<path d="M1.9607 0.00025405C1.51696 -0.0069241 1.08417 0.138201 0.734455 0.411439C0.384745 0.684678 0.139247 1.06952 0.0388839 1.50182C-0.0622231 1.99242 0.035691 2.50309 0.311088 2.9215C0.586485 3.33991 1.01681 3.63178 1.5074 3.73292L1.52015 3.73529C1.64727 3.76359 1.77711 3.77784 1.90734 3.77778V6.61093H2.85173V0.944636H3.79611V6.61093H4.74049V0.944636H5.68487V0.00025405H1.9607ZM0.945491 1.88902C0.945491 1.63855 1.04499 1.39835 1.22209 1.22124C1.3992 1.04413 1.63941 0.944636 1.88987 0.944636V2.8334C1.63941 2.8334 1.3992 2.7339 1.22209 2.5568C1.04499 2.37969 0.945491 2.13948 0.945491 1.88902ZM8.00003 5.89839C8.00003 6.03848 7.95849 6.17542 7.88066 6.2919C7.80283 6.40837 7.69221 6.49916 7.56279 6.55277C7.43337 6.60637 7.29095 6.6204 7.15356 6.59307C7.01617 6.56574 6.88996 6.49828 6.79091 6.39923C6.69185 6.30017 6.62439 6.17397 6.59706 6.03657C6.56973 5.89918 6.58376 5.75677 6.63737 5.62734C6.69098 5.49792 6.78176 5.3873 6.89824 5.30947C7.01471 5.23165 7.15165 5.19011 7.29174 5.19011C7.47959 5.19011 7.65974 5.26473 7.79257 5.39756C7.9254 5.53039 8.00003 5.71054 8.00003 5.89839ZM8.00003 4.00963C8.00003 4.14972 7.95849 4.28665 7.88066 4.40313C7.80283 4.51961 7.69221 4.61039 7.56279 4.664C7.43337 4.71761 7.29095 4.73164 7.15356 4.70431C7.01617 4.67698 6.88996 4.60952 6.79091 4.51046C6.69185 4.41141 6.62439 4.2852 6.59706 4.14781C6.56973 4.01041 6.58376 3.868 6.63737 3.73858C6.69098 3.60916 6.78176 3.49854 6.89824 3.42071C7.01471 3.34288 7.15165 3.30134 7.29174 3.30134C7.47959 3.30134 7.65974 3.37597 7.79257 3.50879C7.9254 3.64162 8.00003 3.82178 8.00003 4.00963ZM8.00003 2.12086C8.00003 2.26095 7.95849 2.39789 7.88066 2.51437C7.80283 2.63084 7.69221 2.72163 7.56279 2.77524C7.43337 2.82884 7.29095 2.84287 7.15356 2.81554C7.01617 2.78821 6.88996 2.72075 6.79091 2.6217C6.69185 2.52264 6.62439 2.39644 6.59706 2.25904C6.56973 2.12165 6.58376 1.97924 6.63737 1.84982C6.69098 1.72039 6.78176 1.60977 6.89824 1.53195C7.01471 1.45412 7.15165 1.41258 7.29174 1.41258C7.47959 1.41258 7.65974 1.4872 7.79257 1.62003C7.9254 1.75286 8.00003 1.93302 8.00003 2.12086Z" fill="black"/>
</svg>
