<svg width="20" height="20" viewBox="0 0 20 20" fill="none" xmlns="http://www.w3.org/2000/svg">
<path d="M18.5023 10.8339C18.5034 10.6366 18.4655 10.441 18.3909 10.2583C18.3163 10.0755 18.2063 9.90928 18.0672 9.7691L18.0658 9.76766L9.94479 1.64666L9.79832 1.5002H9.59119L2.00026 1.5002H1.5002V2.00026L1.5002 9.59119V9.7985L1.64688 9.945L9.76787 18.056L9.76871 18.0568C10.0498 18.3362 10.43 18.4931 10.8263 18.4931C11.2227 18.4931 11.6029 18.3362 11.884 18.0568L11.8847 18.0561L18.0655 11.8853L18.0672 11.8836C18.3442 11.6043 18.5005 11.2273 18.5023 10.8339ZM18.5023 10.8339C18.5023 10.8338 18.5023 10.8336 18.5023 10.8334L18.0022 10.8313L18.5023 10.8342C18.5023 10.8341 18.5023 10.834 18.5023 10.8339ZM10.0012 0.500086L10.0041 0.500069C10.0699 0.499689 10.1352 0.512303 10.1961 0.537188C10.2567 0.561944 10.3119 0.59836 10.3584 0.644365C10.3587 0.644605 10.3589 0.644846 10.3592 0.645087L18.6223 8.91804V8.96804L18.7685 9.11446C19.2368 9.58327 19.4998 10.2188 19.4998 10.8813C19.4998 11.5436 19.2371 12.1787 18.7693 12.6474C18.7691 12.6477 18.7688 12.648 18.7685 12.6482L12.5994 18.7673L12.5982 18.7685C12.1294 19.2368 11.4939 19.4998 10.8313 19.4998C10.1688 19.4998 9.53326 19.2368 9.06447 18.7685L0.645087 10.3592C0.644846 10.3589 0.644605 10.3587 0.644365 10.3584C0.59836 10.3119 0.561944 10.2567 0.537188 10.1961C0.512303 10.1352 0.499689 10.0699 0.500069 10.0041H0.500078V10.0012L0.500078 1.00014C0.500078 0.867514 0.552763 0.740322 0.646542 0.646542C0.740322 0.552763 0.867514 0.500078 1.00014 0.500078L10.0012 0.500086ZM4.94505 4.66912C5.10952 4.55922 5.30288 4.50057 5.50069 4.50057C5.76594 4.50057 6.02032 4.60594 6.20788 4.79349C6.39544 4.98105 6.50081 5.23544 6.50081 5.50069C6.50081 5.69849 6.44215 5.89186 6.33226 6.05633C6.22236 6.22079 6.06617 6.34898 5.88342 6.42468C5.70067 6.50038 5.49958 6.52018 5.30557 6.48159C5.11157 6.443 4.93336 6.34775 4.79349 6.20788C4.65363 6.06801 4.55837 5.88981 4.51978 5.6958C4.48119 5.5018 4.501 5.30071 4.5767 5.11796C4.65239 4.93521 4.78058 4.77901 4.94505 4.66912Z" fill="#75839D" stroke="#75839D"/>
</svg>
