<svg width="64" height="64" viewBox="0 0 64 64" fill="none" xmlns="http://www.w3.org/2000/svg">
<path d="M50.6667 29.3333H34.6667V13.3333C34.6667 11.7333 33.6001 10.6666 32.0001 10.6666C30.4001 10.6666 29.3334 11.7333 29.3334 13.3333V29.3333H13.3334C11.7334 29.3333 10.6667 30.4 10.6667 32C10.6667 33.6 11.7334 34.6666 13.3334 34.6666H29.3334V50.6666C29.3334 52.2666 30.4001 53.3333 32.0001 53.3333C33.6001 53.3333 34.6667 52.2666 34.6667 50.6666V34.6666H50.6667C52.2667 34.6666 53.3334 33.6 53.3334 32C53.3334 30.4 52.2667 29.3333 50.6667 29.3333Z" fill="#0061FF" stroke="white"/>
</svg>
